<svg width="1440" height="2048" viewBox="0 0 1440 2048" fill="none" xmlns="http://www.w3.org/2000/svg">
<mask id="mask0_122_22" style="mask-type:alpha" maskUnits="userSpaceOnUse" x="0" y="0" width="1440" height="2048">
<rect width="1440" height="2048" fill="#D9D9D9"/>
</mask>
<g mask="url(#mask0_122_22)">
<path d="M638.162 693.378C682.367 853.511 396.049 1091.98 254.187 1079.37C176.872 1041.1 235.966 609.509 374.742 562.991C444.13 539.731 593.957 533.246 638.162 693.378Z" fill="#46620B"/>
<path d="M1269 1231.9C1313.21 1392.04 1026.89 1630.51 885.027 1617.89C807.712 1579.62 866.806 1148.03 1005.58 1101.52C1074.97 1078.26 1224.8 1071.77 1269 1231.9Z" fill="#E0C202"/>
<path d="M561.192 716.38C594.639 685.094 513.556 627.57 555.667 554.837C938.455 363.486 1264.55 1180.98 1186.91 1253.61C1124.79 1311.71 1079.99 1231.37 928.408 1228.67C520.306 1221.42 478.557 793.679 561.192 716.38Z" fill="#619713"/>
<path d="M1259.49 1235.73C1259.7 1199 1003.28 1175.57 1049.52 1133.82C1144.06 1048.47 1087.7 1015.42 1117.71 948.658C1189.92 866.108 1403.17 771.045 1587.32 807.645C1771.48 844.246 1738.48 1021.8 1698.96 1106C1594.6 1304.69 1258.96 1326.16 1259.49 1235.73Z" fill="#46620B"/>
<path d="M808.396 1140.88C804.195 1322.41 429.364 1481.77 284.861 1423.86C216.001 1359.44 413.872 926.338 573.782 921.387C653.737 918.911 812.597 959.342 808.396 1140.88Z" fill="#E0DA04"/>
<path d="M-129.747 404.157C-216.263 328.696 -422.021 530.748 -452.624 553.606C-552.011 632.236 -389.684 609.615 -367.252 713.468C-344.82 817.322 -301.518 781.839 -291.486 764.295C-281.454 746.751 -309.008 645.467 -261.729 691.815C-142.833 848.624 -93.8171 845.307 -65.8805 817.531C-37.9438 789.755 -111.846 696.706 -68.0796 688.514C-24.3128 680.323 -11.9124 801.72 57.7164 795.57C127.345 789.419 56.49 723.618 55.6441 673.996C54.7983 624.375 303.431 664.809 314.649 565.345C325.867 465.882 87.7298 586.586 53.8679 569.791C20.006 552.995 163.794 503.39 85.0654 430.277C6.33706 357.165 -57.5802 546.872 -114.68 530.473C-171.78 514.073 -43.2301 479.619 -129.747 404.157Z" fill="#46620B"/>
<path d="M206.856 1261.37C215.16 1323.49 505.314 1533.03 450.414 1543.02C175.914 1592.98 100.28 1726.18 -26.0218 1719.8C-109.442 1715.59 -270.532 1573.42 -197.596 1484.76C-139.247 1413.84 -161.524 1327.44 -141.848 1241.63C-30.1429 951.114 193.638 1162.49 206.856 1261.37Z" fill="#B3BE05"/>
<path d="M1245.43 568.983C1253.74 631.103 1543.89 840.642 1488.99 850.635C1214.49 900.597 1138.86 1033.79 1012.56 1027.42C929.136 1023.2 768.046 881.029 840.982 792.376C899.331 721.454 877.054 635.056 896.73 549.244C1008.44 258.728 1232.22 470.099 1245.43 568.983Z" fill="#B3BE05"/>
<path d="M468.912 1070.35C513.117 1230.48 226.799 1468.95 84.9369 1456.34C7.62241 1418.07 66.7159 986.477 205.492 939.958C274.88 916.699 424.707 910.213 468.912 1070.35Z" fill="#557C00"/>
<path d="M-275.508 1230.2C-241.184 1243.27 -129.376 1011.32 -106.481 1069.26C-59.6732 1187.71 -8.96494 1146.51 43.0436 1198.01C95.0521 1294.57 109.354 1527.61 10.5383 1687.26C-88.2779 1846.91 -243.003 1753.78 -308.014 1687.26C-457.538 1519.88 -360.024 1198.01 -275.508 1230.2Z" fill="#E0DA04"/>
<path d="M170.443 1228.87C181.687 1285.06 186.096 1321.81 177.963 1342.68C174.357 1358.09 151.109 1365.74 86.9566 1273.03C6.76666 1157.14 60.3221 1313.34 34.7859 1329.26C-10.8946 1357.74 -48.3478 1246.8 -58.2076 1205.55C-68.0675 1164.3 -88.9215 1232.6 -121.018 1244.72C-153.115 1256.83 -157.691 1109.59 -164.607 1034.91C-169.068 986.744 -238.058 1057.01 -255.791 1028.57C-273.524 1000.13 -242.884 744.043 -169.61 785.248C-72.1123 827.149 22.7955 775.871 69.0792 786.509C115.363 797.147 66.7375 859.065 65.1778 907.434C63.6181 955.803 231.018 969.917 246.588 1007.61C262.158 1045.29 183.778 1046.77 160.938 1061.01C138.097 1075.25 262.585 1147.72 246.057 1197.52C229.53 1247.33 158.6 1169.69 170.443 1228.87Z" fill="#46620B"/>
<path d="M752.284 1030.4C791.867 974.65 820.168 940.744 844.947 930.725C861.282 921.24 886.953 935.166 858.956 1066.75C823.961 1231.23 915.754 1056.89 950.48 1066.03C1012.6 1082.38 946.924 1205.7 919.177 1248.02C891.43 1290.35 967.803 1252.55 1004.59 1270.51C1041.38 1288.46 917.278 1412.95 858.091 1480.08C819.917 1523.37 937.397 1525.77 927.216 1564.44C917.035 1603.12 669.592 1786.11 645.399 1688.76C601.984 1569.81 479.78 1529.37 451.137 1480.47C422.493 1431.57 516.054 1423.12 559.33 1384.89C602.607 1346.65 477.851 1189.74 497.834 1145.38C517.816 1101.01 583.248 1167.86 614.308 1176.04C645.368 1184.22 606.406 1016.81 663.176 990.399C719.947 963.988 710.587 1089.12 752.284 1030.4Z" fill="#557C00"/>
<path d="M154.211 573.991C240.287 511.782 502.271 468.994 462.082 552.034C449.715 577.586 414.659 763.716 308.329 840.563C283.012 858.86 61.535 872.373 56.6971 791.022C51.8592 709.67 124.686 595.329 154.211 573.991Z" fill="#B3BE05"/>
<path d="M122.575 660.028C153.118 670.17 161.403 600.803 220.44 602.377C467.085 774.421 71.9417 1250.2 1.03743 1226.66C-55.686 1207.82 -21.1312 1153.19 -70.363 1058.72C-202.91 804.362 47.1135 634.971 122.575 660.028Z" fill="#557C00"/>
</g>
</svg>
