<svg width="522" height="678" viewBox="0 0 522 678" fill="none" xmlns="http://www.w3.org/2000/svg">
<path d="M312.039 269.054C351.326 280.865 592.323 317.43 584.292 361.848C573.278 422.763 276.391 408.509 309.506 453.491C465.622 665.551 356.892 708.586 357.591 657.707C358.15 617.004 200.863 490.166 168.54 527.889C138.104 582.601 97.8827 577.807 40.2943 602.462C-30.9553 632.964 132.389 381.087 100.939 355.211C69.7505 310.255 -13.3937 157.719 2.14951 137.577C21.5785 112.399 140.321 266.696 154.438 165.112C165.732 83.8453 266.656 22.4681 315.706 1.93791C366.934 -22.8037 267.694 255.723 312.039 269.054Z" fill="#E0DA04"/>
</svg>
