<svg width="711" height="797" viewBox="0 0 711 797" fill="none" xmlns="http://www.w3.org/2000/svg">
<path d="M601.227 624.74C616.893 703.026 623.037 754.231 611.704 783.311C606.68 804.788 574.286 815.448 484.898 686.267C373.163 524.791 447.786 742.428 412.205 764.614C348.555 804.302 296.368 649.723 282.63 592.248C268.891 534.772 239.834 629.938 195.111 646.818C150.388 663.698 144.012 458.541 134.375 354.48C128.159 287.363 32.0305 385.274 7.32161 345.646C-17.3872 306.019 25.3065 -50.8098 127.405 6.60475C263.256 64.9875 395.498 -6.46184 459.988 8.36127C524.479 23.1843 456.725 109.458 454.552 176.855C452.379 244.252 685.63 263.917 707.325 316.432C729.019 368.946 619.807 371.002 587.981 390.846C556.156 410.689 729.614 511.666 706.585 581.059C683.557 650.453 584.724 542.274 601.227 624.74Z" fill="#619713"/>
</svg>
