<svg width="1205" height="671" viewBox="0 0 1205 671" fill="none" xmlns="http://www.w3.org/2000/svg">
<path d="M534.841 25.8863C404.5 -87.7998 94.5167 216.601 48.4117 251.037C-101.319 369.497 143.234 335.417 177.029 491.877C210.824 648.338 276.06 594.88 291.174 568.45C306.287 542.02 264.776 389.43 336.005 459.256C515.127 695.496 588.971 690.498 631.059 648.652C673.147 606.807 561.809 466.624 627.746 454.283C693.682 441.942 712.364 624.833 817.263 615.567C922.162 606.301 815.415 507.169 814.141 432.411C812.867 357.654 1187.44 418.57 1204.34 268.724C1221.24 118.877 862.48 300.724 811.465 275.42C760.451 250.117 977.073 175.384 858.466 65.2374C739.858 -44.9097 643.564 240.893 557.54 216.186C471.517 191.48 665.183 139.572 534.841 25.8863Z" fill="#E0DA04"/>
</svg>
