<svg width="785" height="739" viewBox="0 0 785 739" fill="none" xmlns="http://www.w3.org/2000/svg">
<path d="M298.596 267.627C329.22 228.709 476.765 -25.8769 523.116 2.76773C586.684 42.0521 439.513 369.282 504.677 351.952C811.876 270.252 812.188 411.412 755.338 388.15C709.858 369.54 497.882 490.204 525.981 543.182C573.999 601.545 550.845 644.612 553.101 720.199C555.892 813.717 345.09 518.941 302.128 542.841C237.844 558.018 29.7531 584.037 13.9917 557.678C-5.70997 524.728 220.087 459.495 112.203 398.759C25.8952 350.17 1.52889 209.675 0.134181 145.502C-5.02952 77.0211 264.029 311.556 298.596 267.627Z" fill="#46620B"/>
</svg>
