<svg width="643" height="642" viewBox="0 0 643 642" fill="none" xmlns="http://www.w3.org/2000/svg">
<path d="M51.9993 121.024C48.9547 98.8044 35.7928 72.8247 61.2023 49.9531C93.5406 20.8448 133.76 30.6864 142.085 39.9356C152.492 51.4972 232.498 -19.7052 248.378 7.04661C268.62 41.1485 319.752 -4.06392 335.632 22.6878C363.971 70.4306 439.639 33.7139 459.31 78.7946C469.145 101.335 588.191 140.682 563.949 183.432C543.747 219.056 647.775 264.946 617.758 312.893C588.026 360.386 676.771 448.135 625.94 472.959C584.048 493.419 567.05 546.897 534.712 576.005C492.549 603.492 403.239 627.374 371.814 638.917C313.679 660.271 298.966 557.986 241.79 598.987C184.613 639.988 153.332 500.713 93.2376 492.019C33.1434 483.324 44.0605 379.317 12.8401 344.632C-18.3803 309.947 30.14 287.202 2.37232 228.481C-10.926 200.358 58.3815 167.601 51.9993 121.024Z" fill="#46620B"/>
</svg>
