<svg width="263" height="642" viewBox="0 0 263 642" fill="none" xmlns="http://www.w3.org/2000/svg">
<path d="M51.7502 120.357C48.7056 98.1374 35.5438 72.1577 60.9533 49.2861C93.2915 20.1779 133.511 30.0194 141.836 39.2687C152.243 50.8302 232.249 -20.3722 248.129 6.37961C268.371 40.4816 319.503 -4.73092 335.383 22.0209C363.722 69.7636 439.39 33.0469 459.061 78.1276C468.896 100.668 587.942 140.015 563.7 182.765C543.498 218.389 647.526 264.279 617.509 312.226C587.777 359.719 676.522 447.468 625.691 472.292C583.799 492.752 566.801 546.23 534.463 575.338C492.3 602.825 402.99 626.707 371.565 638.25C313.43 659.604 298.717 557.319 241.541 598.32C184.364 639.321 153.083 500.046 92.9886 491.352C32.8943 482.657 43.8115 378.65 12.5911 343.965C-18.6293 309.28 29.891 286.535 2.1233 227.814C-11.175 199.691 58.1325 166.934 51.7502 120.357Z" fill="#E0DA04"/>
</svg>
