<svg width="1116" height="595" viewBox="0 0 1116 595" fill="none" xmlns="http://www.w3.org/2000/svg">
<path d="M179.936 35.9326C-2.13652 -122.875 -435.15 302.34 -499.554 350.444C-708.711 515.92 -367.097 468.314 -319.889 686.872C-272.681 905.43 -181.553 830.756 -160.441 793.835C-139.329 756.915 -197.316 543.764 -97.8173 641.303C152.397 971.305 255.549 964.324 314.342 905.87C373.134 847.416 217.607 651.595 309.713 634.357C401.82 617.118 427.916 872.596 574.449 859.653C720.981 846.709 571.868 708.232 570.088 603.804C568.308 499.376 1091.55 584.469 1115.16 375.15C1138.77 165.831 637.611 419.851 566.35 384.505C495.088 349.159 797.687 244.765 632.004 90.9018C466.322 -62.9618 331.809 336.273 211.644 301.761C91.4785 267.249 362.009 194.74 179.936 35.9326Z" fill="#E0DA04"/>
</svg>
