<svg width="486" height="486" viewBox="0 0 486 486" fill="none" xmlns="http://www.w3.org/2000/svg">
<mask id="mask0_133_18" style="mask-type:alpha" maskUnits="userSpaceOnUse" x="0" y="0" width="486" height="486">
<circle cx="243" cy="243" r="243" fill="#DC4807"/>
</mask>
<g mask="url(#mask0_133_18)">
<circle cx="243" cy="243" r="243" fill="#DC4807"/>
<path d="M253.994 538.865C223.594 512.465 235.994 349.198 245.994 270.865C253.994 210.865 296.494 263.365 284.994 283.865C276.338 299.295 306.994 506.865 308.994 528.865C310.994 550.865 291.994 571.865 253.994 538.865Z" fill="#014E8D"/>
<path fill-rule="evenodd" clip-rule="evenodd" d="M285.265 331.218C288.807 373.684 296.817 435.355 302.574 478.87C283.786 483.528 264.134 486 243.906 486C241.646 486 239.394 485.969 237.15 485.908C233.071 446.984 234.823 393.884 238.443 346.062C253.345 339.625 269.01 334.619 285.265 331.218Z" fill="#014E8D"/>
<path fill-rule="evenodd" clip-rule="evenodd" d="M59.223 401.514C22.6018 358.977 0.463867 303.614 0.463867 243.081C0.463867 226.369 2.15114 210.051 5.36463 194.289C12.6702 197.664 17.2122 205.782 21.298 213.084C27.0144 223.3 31.8375 231.92 42.0859 223.722C61.445 208.234 152.433 260.504 175.664 295.35C198.895 330.197 158.24 397.953 136.945 384.402C130.603 380.366 124.604 375.128 118.693 369.966C104.757 357.797 91.3082 346.054 74.9964 351.492C65.5189 354.651 60.8745 375.532 59.223 401.514Z" fill="#014E8D"/>
<path fill-rule="evenodd" clip-rule="evenodd" d="M168.212 366.367C158.556 381.226 146.001 390.165 136.946 384.402C130.604 380.366 124.604 375.128 118.693 369.966C104.757 357.798 91.3087 346.055 74.9969 351.492C65.5073 354.655 60.8632 375.585 59.2173 401.614C23.9164 360.655 2.05114 307.788 0.464844 249.856C77.3168 249.895 142.847 298.347 168.212 366.367Z" fill="#014E8D"/>
</g>
</svg>
