<svg width="469" height="489" viewBox="0 0 469 489" fill="none" xmlns="http://www.w3.org/2000/svg">
<path fill-rule="evenodd" clip-rule="evenodd" d="M265.284 488.287C380.734 468.024 468.466 367.257 468.466 246C468.466 110.138 358.328 0 222.466 0C124.218 0 39.4214 57.5962 -1.05686e-06 140.866C31.0018 124.356 66.3914 115 103.966 115C226.297 115 325.466 214.169 325.466 336.5C325.466 395.241 302.6 448.642 265.284 488.287Z" fill="#237DBC"/>
<mask id="mask0_109_202" style="mask-type:alpha" maskUnits="userSpaceOnUse" x="0" y="0" width="469" height="489">
<path fill-rule="evenodd" clip-rule="evenodd" d="M265.284 488.287C380.734 468.024 468.466 367.257 468.466 246C468.466 110.138 358.328 0 222.466 0C124.218 0 39.4214 57.5962 -1.05686e-06 140.866C31.0018 124.356 66.3914 115 103.966 115C226.297 115 325.466 214.169 325.466 336.5C325.466 395.241 302.6 448.642 265.284 488.287Z" fill="#237DBC"/>
</mask>
<g mask="url(#mask0_109_202)">
<path d="M70.4658 563.989C70.4658 538.303 91.6045 257.454 109.595 118.407C130.509 11.0747 193.25 87.2568 168.963 118.407C153.339 138.446 170.19 543.867 144.676 584.304C119.04 624.935 70.4659 616.808 70.4658 563.989Z" fill="#DC4807"/>
<path d="M270.893 157.888C237.484 111.402 182.515 133.354 159.206 150.14L154.351 194.689C172.479 185.327 211.65 168.153 223.305 174.351C237.872 182.099 252.44 233.426 237.872 240.205C226.218 245.629 177.335 255.378 154.351 259.574L150.466 294.438L154.351 297.344C329.164 312.839 312.654 215.994 270.893 157.888Z" fill="#DC4807"/>
</g>
<mask id="mask1_109_202" style="mask-type:alpha" maskUnits="userSpaceOnUse" x="0" y="0" width="469" height="489">
<path fill-rule="evenodd" clip-rule="evenodd" d="M265.284 488.287C380.734 468.024 468.466 367.257 468.466 246C468.466 110.138 358.328 0 222.466 0C124.218 0 39.4214 57.5962 -1.05686e-06 140.866C31.0018 124.356 66.3914 115 103.966 115C226.297 115 325.466 214.169 325.466 336.5C325.466 395.241 302.6 448.642 265.284 488.287Z" fill="#237DBC"/>
<mask id="mask2_109_202" style="mask-type:alpha" maskUnits="userSpaceOnUse" x="0" y="0" width="469" height="489">
<path fill-rule="evenodd" clip-rule="evenodd" d="M265.284 488.287C380.734 468.024 468.466 367.257 468.466 246C468.466 110.138 358.328 0 222.466 0C124.218 0 39.4214 57.5962 -1.05686e-06 140.866C31.0018 124.356 66.3914 115 103.966 115C226.297 115 325.466 214.169 325.466 336.5C325.466 395.241 302.6 448.642 265.284 488.287Z" fill="#237DBC"/>
</mask>
<g mask="url(#mask2_109_202)">
<path d="M70.4658 563.989C70.4658 538.303 91.6045 257.454 109.595 118.407C130.509 11.0747 193.25 87.2568 168.963 118.407C153.339 138.446 170.19 543.867 144.676 584.304C119.04 624.935 70.4659 616.808 70.4658 563.989Z" fill="#DC4807"/>
<path d="M270.893 157.888C237.484 111.402 182.515 133.354 159.206 150.14L154.351 194.689C172.479 185.327 211.65 168.153 223.305 174.351C237.872 182.099 252.44 233.426 237.872 240.205C226.218 245.629 177.335 255.378 154.351 259.574L150.466 294.438L154.351 297.344C329.164 312.839 312.654 215.994 270.893 157.888Z" fill="#DC4807"/>
</g>
</mask>
<g mask="url(#mask1_109_202)">
<path fill-rule="evenodd" clip-rule="evenodd" d="M382.594 315.001C391.652 313.589 400.935 312.857 410.389 312.857C487.247 312.857 552.796 361.277 578.195 429.277C591.212 409.189 598.922 378.35 585.589 358.351C562.358 323.504 471.37 271.235 452.011 286.722C441.763 294.921 436.94 286.301 431.223 276.084C426.142 267.002 420.354 256.658 409.421 255.747C390.837 254.198 386.191 275.752 386.191 286.722C385.021 295.338 383.808 304.838 382.594 315.001Z" fill="#014E8D"/>
</g>
</svg>
