<svg width="438" height="477" viewBox="0 0 438 477" fill="none" xmlns="http://www.w3.org/2000/svg">
<mask id="mask0_127_2" style="mask-type:alpha" maskUnits="userSpaceOnUse" x="0" y="0" width="438" height="477">
<rect width="438" height="477" fill="#D9D9D9"/>
</mask>
<g mask="url(#mask0_127_2)">
<circle cx="172.45" cy="238.45" r="221.45" fill="#EC7900"/>
<path fill-rule="evenodd" clip-rule="evenodd" d="M235.299 26.2275C230.392 48.2801 229.853 123.038 229.254 206.245C228.587 298.893 227.844 402.017 220.911 454.518C205.313 458.004 189.094 459.842 172.446 459.842C161.038 459.842 149.832 458.979 138.889 457.314C141.442 403.088 161.025 150.088 177.86 20.4353C178.071 19.3564 178.287 18.296 178.506 17.2539C198.186 17.7831 217.225 20.8821 235.299 26.2275Z" fill="#051E47"/>
<path fill-rule="evenodd" clip-rule="evenodd" d="M171.871 70.6963C184.498 50.5997 202.345 34.1305 223.505 23.2012C227.47 24.142 231.393 25.1897 235.272 26.3413C230.414 48.7478 229.877 123.447 229.28 206.554V206.554C229.148 224.88 229.014 243.614 228.829 262.287C197.268 247.741 172.383 221.137 160.047 188.362C163.845 147.212 167.87 106.637 171.871 70.6963Z" fill="#051E47"/>
<path fill-rule="evenodd" clip-rule="evenodd" d="M261.285 35.0059C306.291 54.7962 343.447 89.1453 366.792 132.09C366.792 173.534 332.581 208.096 223.156 198.369L219.284 195.465L223.156 160.619C246.064 156.424 294.785 146.68 306.4 141.26C320.919 134.484 306.4 83.1825 291.881 75.4389C280.265 69.244 241.224 86.4091 223.156 95.766L227.996 51.2401C236.042 45.4292 247.873 38.999 261.285 35.0059Z" fill="#051E47"/>
</g>
</svg>
