<svg width="358" height="358" viewBox="0 0 358 358" fill="none" xmlns="http://www.w3.org/2000/svg">
<mask id="mask0_109_122" style="mask-type:alpha" maskUnits="userSpaceOnUse" x="0" y="0" width="358" height="358">
<circle cx="179" cy="179" r="179" fill="#051E47"/>
</mask>
<g mask="url(#mask0_109_122)">
<circle cx="179" cy="179" r="179" fill="#051E47"/>
<path fill-rule="evenodd" clip-rule="evenodd" d="M352.452 225.78C254.497 196.322 182.59 106.703 179.664 -0.142578C278.52 -0.092516 358.643 80.0614 358.643 178.929C358.643 195.139 356.489 210.846 352.452 225.78Z" fill="#014E8D"/>
<path d="M155.277 279.243C125.798 251.422 142.994 64.1496 155.277 -26.0092C155.277 -36.9571 159.931 -58.4666 178.549 -56.921C201.821 -54.989 201.822 -10.5534 221.216 -26.0092C240.609 -41.465 331.76 10.6983 355.033 45.4738C378.306 80.2494 337.579 147.868 316.245 134.345C294.912 120.821 277.458 93.7732 254.185 101.501C230.912 109.229 236.731 223.215 244.488 257.991C252.246 292.767 192.125 314.018 155.277 279.243Z" fill="#EC7900"/>
<path fill-rule="evenodd" clip-rule="evenodd" d="M347.412 116.367C337.756 131.226 325.201 140.165 316.146 134.402C309.804 130.366 303.805 125.128 297.893 119.966C283.957 107.798 270.509 96.0546 254.197 101.492C244.708 104.655 240.063 125.585 238.417 151.614C203.117 110.655 181.251 57.7879 179.665 -0.143555C256.517 -0.104636 322.047 48.3468 347.412 116.367Z" fill="#E0C202"/>
<path fill-rule="evenodd" clip-rule="evenodd" d="M269.296 333.171C322.912 302.25 359 244.339 359 178C359 163.227 357.21 148.872 353.836 135.14C301.865 180.244 269 246.784 269 321C269 325.081 269.099 329.139 269.296 333.171Z" fill="#DC4807"/>
</g>
</svg>
