<svg width="492" height="492" viewBox="0 0 492 492" fill="none" xmlns="http://www.w3.org/2000/svg">
<circle cx="246" cy="246" r="246" fill="#237DBC"/>
<path fill-rule="evenodd" clip-rule="evenodd" d="M148.647 20.0151C142.634 99.417 141.766 193.388 164.194 212.865C202.194 245.865 221.194 224.865 219.194 202.865C218.741 197.883 216.819 183.385 214.217 163.757C208.44 120.189 199.311 51.3458 195.463 5.19629C179.211 8.58978 163.548 13.5871 148.647 20.0151Z" fill="#DC4807"/>
<path fill-rule="evenodd" clip-rule="evenodd" d="M195.465 5.21777C199.007 47.6845 207.018 109.355 212.774 152.87C193.986 157.528 174.335 160 154.106 160C151.847 160 149.595 159.969 147.35 159.908C143.271 120.984 145.023 67.8842 148.643 20.0621C163.545 13.625 179.21 8.61919 195.465 5.21777Z" fill="#DC4807"/>
<path fill-rule="evenodd" clip-rule="evenodd" d="M203.589 488.449C143.995 478.228 91.7251 446.57 55 401.696C64.4694 360.908 79.9182 333.785 104.152 336.945C149.396 342.845 186.222 416.06 203.589 488.449Z" fill="#DC4807"/>
<path fill-rule="evenodd" clip-rule="evenodd" d="M305.641 484.628C307.196 455.012 309.405 427.242 311.629 405C316.252 358.775 283.268 374.088 255.404 387.024C238.059 395.077 222.699 402.208 219.629 393C211.629 369 281.629 287 331.629 265C367.48 249.225 436.234 285.891 477.437 328.548C469.12 351.902 457.374 373.628 442.805 393.122C414.599 362.114 400.843 347.643 377.629 353C363.608 356.235 366.309 406 372.479 456.815C351.962 469.187 329.492 478.649 305.641 484.628Z" fill="#DC4807"/>
<path fill-rule="evenodd" clip-rule="evenodd" d="M424 285.896C429.29 317.937 440.211 348.078 455.712 375.269C464.762 360.644 472.323 345 478.182 328.548C462.887 312.713 443.796 297.704 424 285.896Z" fill="#DC4807"/>
<path fill-rule="evenodd" clip-rule="evenodd" d="M270.51 310.425C311.208 353.236 337.388 409.979 341.158 472.764C329.733 477.582 317.869 481.563 305.641 484.628C307.196 455.012 309.405 427.242 311.629 405C316.252 358.775 283.268 374.088 255.404 387.024C238.059 395.077 222.699 402.208 219.629 393C214.713 378.251 239.255 341.596 270.51 310.425Z" fill="#DC4807"/>
</svg>
