<svg width="469" height="633" viewBox="0 0 469 633" fill="none" xmlns="http://www.w3.org/2000/svg">
<mask id="mask0_111_448" style="mask-type:alpha" maskUnits="userSpaceOnUse" x="0" y="0" width="469" height="633">
<rect width="469" height="633" fill="#D9D9D9"/>
</mask>
<g mask="url(#mask0_111_448)">
<mask id="mask1_111_448" style="mask-type:alpha" maskUnits="userSpaceOnUse" x="17" y="51" width="541" height="541">
<circle cx="287.5" cy="321.5" r="270.5" fill="#051E47"/>
</mask>
<g mask="url(#mask1_111_448)">
<circle cx="287.5" cy="321.5" r="270.5" fill="#051E47"/>
<path fill-rule="evenodd" clip-rule="evenodd" d="M165 79.0511C201.676 60.4702 243.156 50 287.083 50C406.574 50 507.969 127.479 543.772 234.939C529.726 236.302 515.486 237 501.083 237C365.898 237 245.066 175.546 165 79.0511Z" fill="#014E8D"/>
<path fill-rule="evenodd" clip-rule="evenodd" d="M190.554 68.7754C173.494 138.349 115.762 191.948 44 202.931C73.9412 141.633 126.375 93.3325 190.554 68.7754Z" fill="#DC4807"/>
<path fill-rule="evenodd" clip-rule="evenodd" d="M83.5794 499.947C100.237 500.863 114.402 491.11 106.375 459C98.6865 428.248 60.8419 390.258 19.9999 365.896C28.3998 416.769 50.9943 462.854 83.5794 499.947Z" fill="#E0C202"/>
<path fill-rule="evenodd" clip-rule="evenodd" d="M52.3377 455.269C29.8484 415.819 17 370.16 17 321.5C17 274.797 28.836 230.858 49.672 192.52C74.5541 230.966 89 276.796 89 326C89 373.42 75.5828 417.706 52.3377 455.269Z" fill="#E0C202"/>
<path fill-rule="evenodd" clip-rule="evenodd" d="M20 365.896C25.2903 397.937 36.211 428.078 51.7119 455.269C60.7624 440.644 68.3229 425 74.1819 408.548C58.887 392.713 39.7956 377.704 20 365.896Z" fill="#014E8D"/>
<path fill-rule="evenodd" clip-rule="evenodd" d="M221.79 583.833C198.548 577.983 176.502 569.127 156.088 557.7C155.052 510.365 163.071 466.864 184.52 443.999C228.885 396.705 364.52 383.999 348.52 463.999C332.52 543.999 266.52 582 255.52 576C237.746 566.305 226.641 573.012 221.79 583.833ZM230.52 500C233.186 510 245.52 524 273.52 500C308.52 470 311.52 454.999 292.52 443.999C273.52 433 230.52 479 230.52 500Z" fill="#E0C202"/>
</g>
</g>
</svg>
