<svg width="706" height="706" viewBox="0 0 706 706" fill="none" xmlns="http://www.w3.org/2000/svg">
<mask id="mask0_130_70" style="mask-type:alpha" maskUnits="userSpaceOnUse" x="0" y="0" width="706" height="706">
<circle cx="353" cy="353" r="353" fill="#014E8D"/>
</mask>
<g mask="url(#mask0_130_70)">
<mask id="mask1_130_70" style="mask-type:alpha" maskUnits="userSpaceOnUse" x="-53" y="-11" width="705" height="768">
<rect x="-53" y="-11" width="705" height="768" fill="#D9D9D9"/>
</mask>
<g mask="url(#mask1_130_70)">
<circle cx="353" cy="353" r="353" fill="#014E8D"/>
<path fill-rule="evenodd" clip-rule="evenodd" d="M481 452.999C465.334 482.666 425 530.999 389 486.999C344 431.999 315 249.5 368 192.999C412.365 145.705 548 132.999 532 212.999C516 292.999 450 331 439 325C409 308.636 398 339 404 357C410 375 447 454 481 427C508.2 405.4 492.334 435.333 481 452.999ZM457 249C429 273 416.667 259 414 249C414 228 457 182 476 192.999C495 203.999 492 219 457 249Z" fill="#E0C202"/>
<path d="M113 534C74.6003 518 83.667 327.333 93.0003 234C100.5 159 9.00038 246 1.00038 222C-6.99962 198 63.0004 116 113 93.9998C163 71.9998 277 152 291 208C305 264 251.5 252 235 234C199.137 194.874 185 176 159 182C133 188 164.5 354 169 390C174.971 437.757 161 554 113 534Z" fill="#E0C202"/>
<path fill-rule="evenodd" clip-rule="evenodd" d="M86.3272 450.558C109.34 411.908 122.558 366.748 122.558 318.5C122.558 255.446 99.9821 197.665 62.4729 152.799C47.5306 174.301 34.9179 197.545 25 222.163C28.5972 220.616 32.4146 218.843 36.3332 217.024C64.1965 204.088 97.1805 188.775 92.5581 235C86.925 291.33 81.3891 383.116 86.3272 450.558Z" fill="#E0C202"/>
<path fill-rule="evenodd" clip-rule="evenodd" d="M268.58 248.947C285.237 249.863 299.402 240.11 291.375 208C283.687 177.248 245.842 139.258 205 114.896C213.4 165.769 235.994 211.855 268.58 248.947Z" fill="#E0C202"/>
<path fill-rule="evenodd" clip-rule="evenodd" d="M86.6408 313.628C88.196 284.012 90.405 256.242 92.6292 234C97.2517 187.775 64.2677 203.088 36.4044 216.024C19.0594 224.077 3.69864 231.208 0.629285 222C-7.37072 198 62.6293 116 112.629 93.9998C148.48 78.2254 217.234 114.891 258.437 157.548C250.12 180.902 238.374 202.628 223.805 222.122C195.599 191.114 181.843 176.643 158.629 182C144.608 185.235 147.309 235 153.479 285.815C132.962 298.187 110.492 307.649 86.6408 313.628Z" fill="#E0C202"/>
<path fill-rule="evenodd" clip-rule="evenodd" d="M51.51 139.425C92.2079 182.236 118.388 238.979 122.158 301.764C110.733 306.582 98.8685 310.563 86.6408 313.628C88.196 284.012 90.405 256.242 92.6292 234C97.2517 187.775 64.2677 203.088 36.4044 216.024C19.0594 224.077 3.69864 231.208 0.629285 222C-4.28713 207.251 20.2551 170.596 51.51 139.425Z" fill="#E0C202"/>
<path fill-rule="evenodd" clip-rule="evenodd" d="M404.79 332.833C381.548 326.983 359.502 318.127 339.088 306.7C338.052 259.365 346.071 215.864 367.52 192.999C411.885 145.705 547.52 132.999 531.52 212.999C515.52 292.999 449.52 331 438.52 325C420.746 315.305 409.641 322.012 404.79 332.833ZM413.52 249C416.186 259 428.52 273 456.52 249C491.52 219 494.52 203.999 475.52 192.999C456.52 182 413.52 228 413.52 249Z" fill="#E0C202"/>
<path fill-rule="evenodd" clip-rule="evenodd" d="M388.949 487C424.949 531 465.283 482.667 480.949 453C492.283 435.333 508.149 405.4 480.949 427C457.542 445.588 432.713 413.936 417.556 386.536C395.18 390.832 373.854 398.082 354 407.864C362.885 441.348 375.166 470.154 388.949 487Z" fill="#E0C202"/>
</g>
</g>
</svg>
