<svg width="517" height="517" viewBox="0 0 517 517" fill="none" xmlns="http://www.w3.org/2000/svg">
<mask id="mask0_111_286" style="mask-type:alpha" maskUnits="userSpaceOnUse" x="0" y="0" width="517" height="517">
<circle cx="258.5" cy="258.5" r="258.5" fill="#EC7900"/>
</mask>
<g mask="url(#mask0_111_286)">
<circle cx="258.5" cy="258.5" r="258.5" fill="#EC7900"/>
<path fill-rule="evenodd" clip-rule="evenodd" d="M170.407 503.013C221.623 448.529 253 375.178 253 294.5C253 188.217 198.548 94.6529 116.021 40.1816C43.873 86.0407 -4 166.679 -4 258.5C-4 371.826 68.9246 468.119 170.407 503.013Z" fill="#014E8D"/>
<path fill-rule="evenodd" clip-rule="evenodd" d="M430.836 451.176C407.26 403.843 394 350.47 394 294C394 219.225 417.25 149.879 456.915 92.7988C494.424 137.665 517 195.446 517 258.5C517 335.058 483.719 403.843 430.836 451.176Z" fill="#DC4807"/>
<path fill-rule="evenodd" clip-rule="evenodd" d="M480.327 391.558C503.34 352.908 516.558 307.748 516.558 259.5C516.558 196.446 493.982 138.665 456.473 93.7988C441.531 115.301 428.918 138.545 419 163.163C422.597 161.616 426.415 159.843 430.333 158.024C458.197 145.088 491.181 129.775 486.558 176C480.925 232.33 475.389 324.116 480.327 391.558Z" fill="#237DBC"/>
<path fill-rule="evenodd" clip-rule="evenodd" d="M-3.96073 253.948C-3.98688 255.462 -4 256.98 -4 258.5C-4 331.504 26.2628 397.44 74.9277 444.447C124.084 441.559 159.719 408.42 171 347C189 249 189 95 143 115C121.164 124.494 117.017 179.956 112.856 235.606C108.251 297.188 103.629 359 75 359C57.0239 359 21.3123 341.172 -3.96073 253.948Z" fill="#DC4807"/>
<path fill-rule="evenodd" clip-rule="evenodd" d="M279.684 106.946C214.514 98.447 212.877 308.948 220.205 415.261C228.724 442.365 267.026 436.515 270.246 419.822C270.657 417.691 270.859 407.428 271.146 392.768C271.512 374.113 272.018 348.34 273.273 323.145C281.294 330.803 301.703 322.689 310.904 317.675C312.53 331.042 313.954 344.381 315.214 356.179C316.899 371.964 318.29 384.991 319.476 391.637C324.37 419.061 338.196 447.698 377.752 395.751C415.318 346.417 361.146 117.569 279.684 106.946ZM274.758 298.989C277.116 267.677 281.089 241.615 288.029 237.897C296.73 233.237 303.187 261.997 308.09 296.254C300.668 306.228 282.776 302.234 274.758 298.989Z" fill="#237DBC"/>
<circle cx="85" cy="-127" r="179" fill="#051E47"/>
<path fill-rule="evenodd" clip-rule="evenodd" d="M229.17 176.76C214.358 245.786 215.481 350.096 219.973 415.261C220.983 418.474 222.412 421.224 224.151 423.548C242.51 384.366 252.768 340.631 252.768 294.501C252.768 252.759 244.37 212.98 229.17 176.76Z" fill="#DC4807"/>
<path fill-rule="evenodd" clip-rule="evenodd" d="M175.01 13.7797C201.201 4.84663 229.285 0 258.5 0C395.982 0 508.396 107.326 516.529 242.763C487.158 255.151 454.879 262 421 262C285.138 262 175 151.862 175 16C175 15.2591 175.003 14.5191 175.01 13.7797Z" fill="#E0C202"/>
<path fill-rule="evenodd" clip-rule="evenodd" d="M378.589 258.449C318.995 248.228 266.725 216.57 230 171.696C239.469 130.908 254.918 103.785 279.152 106.945C324.396 112.845 361.222 186.06 378.589 258.449Z" fill="#051E47"/>
<path fill-rule="evenodd" clip-rule="evenodd" d="M445.51 80.4248C486.208 123.236 512.388 179.979 516.158 242.764C504.733 247.582 492.869 251.563 480.641 254.628C482.196 225.012 484.405 197.242 486.629 175C491.252 128.775 458.268 144.088 430.404 157.024C413.059 165.077 397.699 172.208 394.629 163C389.713 148.251 414.255 111.596 445.51 80.4248Z" fill="#051E47"/>
</g>
</svg>
