<svg width="609" height="609" viewBox="0 0 609 609" fill="none" xmlns="http://www.w3.org/2000/svg">
<mask id="mask0_133_42" style="mask-type:alpha" maskUnits="userSpaceOnUse" x="0" y="0" width="609" height="609">
<circle cx="304.5" cy="304.5" r="304.5" fill="#E0C202"/>
</mask>
<g mask="url(#mask0_133_42)">
<circle cx="304.5" cy="304.5" r="304.5" fill="#E0C202"/>
<path d="M331 427C252.6 383.8 257 214.334 269 135C283 77.0002 315 -1.39975 331 149C351 337 406.917 369 431 369C485.5 369 453 145 499 125C545 105 545 259 527 357C509 455 429 481 331 427Z" fill="#051E47"/>
<path fill-rule="evenodd" clip-rule="evenodd" d="M352.039 263.948C352.013 265.462 352 266.98 352 268.5C352 341.504 382.263 407.44 430.928 454.447C480.084 451.559 515.719 418.42 527 357C545 259 545 105 499 125C477.164 134.494 473.017 189.956 468.856 245.606C464.251 307.188 459.629 369 431 369C413.024 369 377.312 351.172 352.039 263.948Z" fill="#051E47"/>
<path fill-rule="evenodd" clip-rule="evenodd" d="M585.17 186.76C570.358 255.786 571.481 360.096 575.973 425.261C576.983 428.474 578.412 431.224 580.151 433.548C598.51 394.366 608.768 350.631 608.768 304.501C608.768 262.759 600.37 222.98 585.17 186.76Z" fill="#051E47"/>
</g>
</svg>
