<svg width="1440" height="2306" viewBox="0 0 1440 2306" fill="none" xmlns="http://www.w3.org/2000/svg">
<mask id="mask0_119_91" style="mask-type:alpha" maskUnits="userSpaceOnUse" x="0" y="0" width="1440" height="2306">
<rect width="1440" height="2306" fill="#D9D9D9"/>
</mask>
<g mask="url(#mask0_119_91)">
<path d="M64.4803 541.238L6.85294 423.615L58.0748 422.233L20.8227 335.933L155 51L338.6 270.546L249.214 442.023L64.4803 541.238Z" fill="#8CB9DB"/>
<path d="M655.37 352.625C515.578 294.083 232.348 177 217.761 177L174 562.399V991.705L334.457 801.444C390.373 881.126 508.041 1050.25 531.38 1089.27C554.72 1128.3 655.37 1040.49 702.777 991.705L845 767.295L655.37 352.625Z" fill="#237DBC"/>
<path d="M462.543 1398.34C320.668 1363.22 33.2174 1293 18.413 1293L-26 1524.15V1781.64L136.848 1667.53C193.598 1715.32 336.707 1840.17 336.707 1840.17L510.658 1781.64L655 1647.05L462.543 1398.34Z" fill="#014E8D"/>
<path d="M841.543 1278.34C699.668 1243.22 412.217 1173 397.413 1173L353 1404.15V1661.64L515.848 1547.53C572.598 1595.32 692.02 1696.76 715.707 1720.17C739.393 1743.57 841.543 1690.9 889.658 1661.64L1034 1527.05L841.543 1278.34Z" fill="#237DBC"/>
<path d="M1177.54 1082.34C1035.67 1047.22 748.217 976.999 733.413 976.999L689 1208.15V1465.64L851.848 1351.53C908.598 1399.32 1028.02 1500.76 1051.71 1524.17C1075.39 1547.57 1177.54 1494.9 1225.66 1465.64L1370 1331.05L1177.54 1082.34Z" fill="#014E8D"/>
<path d="M381 648.784L207.311 467.219L-52 414.001L-34.8757 990.001L219.542 952.436L270.915 861.654L207.311 692.61L381 648.784Z" fill="#082D6A"/>
<path d="M390 1863.78L216.311 1682.22L-43 1629L-25.8757 2205L228.542 2167.43L279.915 2076.65L216.311 1907.61L390 1863.78Z" fill="#082D6A"/>
<path d="M271.957 948.337C159.873 913.225 -67.2174 843 -78.913 843L-114 1074.16V1331.65L14.6522 1217.53C59.4855 1265.32 153.83 1366.76 172.543 1390.17C191.257 1413.57 271.957 1360.91 309.967 1331.65L424 1197.05L271.957 948.337Z" fill="#237DBC"/>
<mask id="mask1_119_91" style="mask-type:alpha" maskUnits="userSpaceOnUse" x="908" y="752" width="532" height="681">
<rect x="908" y="752" width="532" height="681" fill="#D9D9D9"/>
</mask>
<g mask="url(#mask1_119_91)">
<path d="M1443.96 869.338C1331.87 834.226 1104.78 764.001 1093.09 764.001L1058 995.157V1252.65L1186.65 1138.53C1231.49 1186.32 1344.54 1311.17 1344.54 1311.17C1344.54 1311.17 1443.96 1281.91 1481.97 1252.65L1596 1118.05L1443.96 869.338Z" fill="#237DBC"/>
</g>
<path d="M1293.96 581.338C1181.87 546.226 954.783 476.001 943.087 476.001L908 707.157V964.648L1036.65 850.533C1081.49 898.324 1194.54 1023.17 1194.54 1023.17C1194.54 1023.17 1293.96 993.908 1331.97 964.648L1446 830.051L1293.96 581.338Z" fill="#237DBC"/>
<mask id="mask2_119_91" style="mask-type:alpha" maskUnits="userSpaceOnUse" x="942" y="118" width="498" height="618">
<rect x="942" y="118" width="498" height="618" fill="#D9D9D9"/>
</mask>
<g mask="url(#mask2_119_91)">
<path d="M1334.46 229.458L983.588 124.121L948.501 355.277V612.767L1077.15 498.652C1121.99 546.444 1235.04 671.288 1235.04 671.288C1235.04 671.288 1334.46 642.028 1372.47 612.767L1486.5 478.17L1334.46 229.458Z" fill="#237DBC"/>
</g>
<path d="M1366.91 485.999C1362.13 498.309 1063.05 503.875 1041.15 495.359L1084.06 701.946L1233.36 570.111L1480.94 646.553L1714.69 592.905L1493.45 362.312C1452.87 399.438 1370.74 476.151 1366.91 485.999Z" fill="#082D6A"/>
<path d="M128.961 1480.52C140.92 1474.92 361.253 1677.23 371.229 1698.51L482.703 1519.36L283.665 1511.78L157.192 1285.63L-49.0236 1163.19L-47.968 1482.76C7.02217 1483.88 119.394 1485.01 128.961 1480.52Z" fill="#082D6A"/>
<path d="M719.942 1037C635.599 1038.07 462.429 1039.56 444.493 1037L342 1235.4L556.594 1389L784 1267.4L719.942 1037Z" fill="#8CB9DB"/>
<path d="M1050 825.531L1091.35 716.119L1144.51 743.472L1179.95 665.972L1558 552.001V798.178L1321.72 862.001L1050 825.531Z" fill="#8CB9DB"/>
<path d="M-114 1540.53L-72.6512 1431.12L-19.4884 1458.47L15.9535 1380.97L394 1267V1513.18L157.721 1577L-114 1540.53Z" fill="#8CB9DB"/>
<path d="M452 1916.65L489.605 1741.59L537.953 1785.35L570.186 1661.35L914 1479L1040 1836L884 1975H699.116L452 1916.65Z" fill="#8CB9DB"/>
<path d="M924.634 648.423L711.814 793.286L608 1050.78L1177 1142.1L1190.7 872.474L1111.77 802.289L933.134 835.933L924.634 648.423Z" fill="#082D6A"/>
<path d="M608 806.531L639.907 697.119L680.93 724.472L708.279 646.972L1000 533.001V779.178L817.674 843.001L608 806.531Z" fill="#8CB9DB"/>
<path d="M1039 2025.53L1070.91 1916.12L1111.93 1943.47L1139.28 1865.97L1431 1752V1998.18L1248.67 2062L1039 2025.53Z" fill="#8CB9DB"/>
<path d="M1823.89 686.592C1820.95 668.902 1449.68 562.761 1405.49 562.761L1384.86 492L1267 512.639L1505.67 1120L1541.03 786.836L1770.85 954.893C1789.52 871.356 1826.25 700.744 1823.89 686.592Z" fill="#014E8D"/>
<path d="M1824.89 1688.59C1821.95 1670.9 1450.68 1564.76 1406.49 1564.76L1385.86 1494L1268 1514.64L1506.67 2122L1542.03 1788.83L1771.85 1956.89C1790.52 1873.35 1827.25 1702.74 1824.89 1688.59Z" fill="#014E8D"/>
<path d="M859.596 1930.3C875.753 1934.62 479.621 1994.91 450.88 1987.22L533.513 2241.29L703.165 2054.67L1025.37 2116.57L1312.13 2016.65L1001.71 1757.09C955.779 1809.44 859.596 1930.3 859.596 1930.3Z" fill="#082D6A"/>
</g>
</svg>
