<svg width="3153" height="413" viewBox="0 0 3153 413" fill="none" xmlns="http://www.w3.org/2000/svg">
<path d="M2623.54 267.528C2619.33 239.081 2560.66 260.398 2538.15 212.671C2576.1 -53.335 3114.7 70.3328 3124.46 136.37C3132.27 189.2 3074.78 183.63 3019.24 260.934C2869.7 469.06 2633.93 337.81 2623.54 267.528Z" fill="#E0C202"/>
<path d="M1984.47 267.528C1980.27 239.081 1921.6 260.398 1899.09 212.671C1937.04 -53.3349 2485.4 136.371 2485.4 136.371C2485.4 136.371 2435.72 183.63 2380.17 260.934C2230.64 469.061 1994.86 337.81 1984.47 267.528Z" fill="#E0C202"/>
<path d="M1984.47 267.528C1980.27 239.081 1921.6 260.398 1899.09 212.671C1937.04 -53.3349 2485.4 136.371 2485.4 136.371C2485.4 136.371 2435.72 183.63 2380.17 260.934C2230.64 469.061 1994.86 337.81 1984.47 267.528Z" fill="#237DBC" fill-opacity="0.25"/>
<path d="M1353.75 267.528C1353.75 267.528 1290.87 260.398 1268.36 212.671C1306.31 -53.3348 1854.67 136.371 1854.67 136.371C1854.67 136.371 1804.99 183.63 1749.45 260.934C1599.91 469.061 1353.75 267.528 1353.75 267.528Z" fill="#E0C202"/>
<path d="M1353.75 267.528C1353.75 267.528 1290.87 260.398 1268.36 212.671C1306.31 -53.3348 1854.67 136.371 1854.67 136.371C1854.67 136.371 1804.99 183.63 1749.45 260.934C1599.91 469.061 1353.75 267.528 1353.75 267.528Z" fill="#237DBC" fill-opacity="0.5"/>
<path d="M717.748 267.528C717.748 267.528 654.874 260.398 632.363 212.671C670.31 -53.3347 1218.67 136.371 1218.67 136.371L1113.45 260.934L717.748 267.528Z" fill="#E0C202"/>
<path d="M717.748 267.528C717.748 267.528 654.874 260.398 632.363 212.671C670.31 -53.3347 1218.67 136.371 1218.67 136.371L1113.45 260.934L717.748 267.528Z" fill="#237DBC" fill-opacity="0.75"/>
<path d="M85.7492 267.528L0.364419 114L586.672 136.37L481.449 260.934L85.7492 267.528Z" fill="#E0C202"/>
<path d="M85.7492 267.528L0.364419 114L586.672 136.37L481.449 260.934L85.7492 267.528Z" fill="#237DBC"/>
</svg>
