<svg width="3829" height="522" viewBox="0 0 3829 522" fill="none" xmlns="http://www.w3.org/2000/svg">
<path d="M388.711 493.525L22.9357 216.984L477.062 44.682L710.018 346.181L388.711 493.525Z" fill="#014E8D"/>
<path d="M3471.71 491.774C3314.6 477.162 2979.77 268.794 3105.93 215.233C3144.75 198.752 3365.99 24.8817 3560.06 42.9312C3606.26 47.2287 3867.16 248.721 3793.01 344.43C3718.86 440.139 3525.59 496.786 3471.71 491.774Z" fill="#B3BE05"/>
<path d="M2698.71 491.525C2541.61 476.912 2206.78 268.545 2332.94 214.984C2371.75 198.503 2787.06 42.6819 2787.06 42.6819C2787.06 42.6819 3094.17 248.471 3020.02 344.181C2945.87 439.89 2752.6 496.537 2698.71 491.525Z" fill="#B3BE05"/>
<path d="M2698.71 491.525C2541.61 476.912 2206.78 268.545 2332.94 214.984C2371.75 198.503 2787.06 42.6819 2787.06 42.6819C2787.06 42.6819 3094.17 248.471 3020.02 344.181C2945.87 439.89 2752.6 496.537 2698.71 491.525Z" fill="#014E8D" fill-opacity="0.25"/>
<path d="M1928.71 492.525C1771.61 477.912 1436.78 269.545 1562.94 215.984C1601.75 199.503 2017.06 43.6819 2017.06 43.6819L2250.02 345.181C2250.02 345.181 1982.6 497.537 1928.71 492.525Z" fill="#B3BE05"/>
<path d="M1928.71 492.525C1771.61 477.912 1436.78 269.545 1562.94 215.984C1601.75 199.503 2017.06 43.6819 2017.06 43.6819L2250.02 345.181C2250.02 345.181 1982.6 497.537 1928.71 492.525Z" fill="#014E8D" fill-opacity="0.5"/>
<path d="M1158.71 492.525C1158.71 492.525 666.777 269.545 792.936 215.984C831.755 199.503 1247.06 43.6819 1247.06 43.6819L1480.02 345.181L1158.71 492.525Z" fill="#B3BE05"/>
<path d="M1158.71 492.525C1158.71 492.525 666.777 269.545 792.936 215.984C831.755 199.503 1247.06 43.6819 1247.06 43.6819L1480.02 345.181L1158.71 492.525Z" fill="#014E8D" fill-opacity="0.75"/>
</svg>
